<svg width="338" height="991" viewBox="0 0 338 991" fill="none" xmlns="http://www.w3.org/2000/svg">
<path d="M179 1C183.833 79.1667 172.5 273 172.5 273C152.167 275.167 102.9 291.7 68.5 340.5L3 287L10 412.5L72 350.5C87.3333 331 129.3 290.1 174.5 282.5C202.667 276.333 274.1 278 334.5 334C316.5 357.833 265.2 407.5 204 415.5L207.5 710C217.5 704.5 236.4 701.5 232 733.5L274.5 737C300.5 747.667 338.2 778.1 281 814.5H271.5V965C267.167 975.5 245.9 994.6 195.5 987C188.333 946.833 160.9 865 108.5 859L90 983C67.6667 991.167 20.7 993.3 11.5 936.5C7.83333 929.667 12.2 905.6 59 864C61.3333 846.833 57.6 808.4 24 792" stroke="#EA0909" stroke-width="4"/>
</svg>
